<?xml version="1.0" encoding="utf-8"?>
<!-- Generator: Adobe Illustrator 21.1.0, SVG Export Plug-In . SVG Version: 6.00 Build 0)  -->
<svg version="1.1" xmlns="http://www.w3.org/2000/svg" xmlns:xlink="http://www.w3.org/1999/xlink" x="0px" y="0px"
	 viewBox="0 0 24 24" style="enable-background:new 0 0 24 24;" xml:space="preserve">
<style type="text/css">
	.st0{opacity:0.7;}
	.st1{fill:#1D1D1B;}
	.st2{fill:#FFFFFF;}
	.st3{fill:#333333;}
	.st4{fill:#EE1C25;}
	.st5{fill:#D9DBDF;}
	.st6{fill:#231F20;}
	.st7{fill:#F8F8FB;}
	.st8{fill:#B3B3BB;}
	.st9{fill:none;}
	.st10{fill:#3774DF;}
	.st11{fill:#F8F8FB;stroke:#D9DBDF;stroke-miterlimit:10;}
	.st12{fill:#202020;}
	.st13{fill:#28CE42;}
	.st14{fill:#F2F2F7;}
	.st15{fill:#F3E324;}
	.st16{fill:#1A1A1A;}
	.st17{fill:#606060;}
	.st18{fill:#19F9C3;}
	.st19{fill:#E84E1B;}
	.st20{fill:#FFFFFF;stroke:#ECECEC;stroke-width:1.6099;stroke-miterlimit:10;}
	.st21{fill:#ED252A;}
	.st22{fill:#5E5E5D;}
	.st23{fill:none;stroke:#1D1D1B;stroke-width:14.489;stroke-miterlimit:10;}
	.st24{fill:#009EE2;}
	.st25{fill:#F2F2F2;}
	.st26{fill:#3C3C3B;}
	.st27{fill:#F29100;}
	.st28{opacity:0.4;fill:#009EE2;}
	.st29{fill:none;stroke:#1D1D1B;stroke-miterlimit:10;}
	.st30{fill:#F34B42;}
	.st31{fill:#F2F2F7;stroke:#D9DBDF;stroke-miterlimit:10;}
	.st32{fill:none;stroke:#333333;stroke-miterlimit:10;}
	.st33{opacity:0.7;fill:#19F9C3;}
	.st34{fill:none;stroke:#5E5E5D;stroke-miterlimit:10;}
	.st35{fill:none;stroke:#202020;stroke-miterlimit:10;}
	.st36{opacity:0.5;fill:#19F9C3;}
	.st37{fill:none;stroke:#19F9C3;stroke-width:2;stroke-miterlimit:10;}
	.st38{opacity:0.2;}
	.st39{display:none;}
	.st40{display:inline;opacity:0.8;fill:#FFFFFF;}
	.st41{display:inline;}
	.st42{display:inline;fill:#202020;}
	.st43{fill:#191919;}
	.st44{fill:#00FFCC;}
	.st45{display:inline;fill:#B3B3BB;}
	.st46{display:inline;fill:none;stroke:#B3B3BB;stroke-miterlimit:10;}
	.st47{display:inline;fill:#19F9C3;}
	.st48{opacity:0.3;fill:#19F9C3;}
	.st49{opacity:0.39;fill:#19F9C3;}
</style>
<g id="Ebene_31">
</g>
<g id="Flächen">
</g>
<g id="updater">
</g>
<g id="_x30_1_Mainlayer">
</g>
<g id="_x30_2_Scrollbars">
</g>
<g id="_x30_3_Buttons">
</g>
<g id="_x30_4_Textabstände">
</g>
<g id="doku">
</g>
<g id="color">
</g>
<g id="Typo_size_1_">
</g>
<g id="_x2D_---------">
</g>
<g id="Ebene_17">
</g>
<g id="_x31_03">
	<path class="st2" d="M24,12c0,6.6-5.4,12-12,12S0,18.6,0,12C0,5.4,5.4,0,12,0S24,5.4,24,12z"/>
	<path class="st12" d="M15.2,9.1c0,2.3-1,4.1-3.2,4.1c-2.2,0-3.2-1.8-3.2-4.1C8.8,6.8,9.7,5,12,5C14.3,5,15.2,6.8,15.2,9.1z"/>
	<path class="st12" d="M19.9,17.5L19.9,17.5c-1.7,2.5-4.6,4.1-7.9,4.1c-3.3,0-6.1-1.6-7.9-4.1v0c0.3-1.5,2.5-2.7,5.4-3.2
		c0.7,0.4,1.6,0.6,2.5,0.6c0.9,0,1.8-0.2,2.5-0.6C17.4,14.8,19.5,16,19.9,17.5z"/>
</g>
<g id="change_pw__x2F__infos_etc">
</g>
<g id="login" class="st39">
</g>
<g id="login_doku" class="st39">
</g>
<g id="_x31_03_doku">
</g>
</svg>
