<svg height="50" width="100" viewBox="50 -10 100 50" xmlns="http://www.w3.org/2000/svg" xmlns:xlink="http://www.w3.org/1999/xlink" preserveAspectRatio=""><g fill="none" fill-rule="evenodd"><path d="M135.63 19.522c-.567 1.112-2.57 3.096-5.58 3.028-3.01-.07-3.737-2.632-3.79-2.904-.202-1.08.124-2.087.89-2.734 1.366-1.147 3.78-1.652 3.78-1.652l5.18-1.365.003 3.706s.11.762-.483 1.922zm-12.686-5.64c-1.492 1.66-1.838 3.996-1.838 3.996l-2.814-1.142s-1.43 5.508-6.13 5.208c-4.222-.27-6.05-4.54-6.077-8.773-.026-4.234 2.078-8.283 5.993-8.19 4.017.093 5.713 4.22 5.713 4.22l4.222-1.854s-.098 1.34-.014 1.59h5.21s-.703-4.442 4.35-4.43c3.836.01 4.387 1.977 4.443 2.576.066.7.03 2.215.03 2.215s-5.25 1.244-9.773 2.644c-1.468.458-2.686 1.244-3.313 1.94zm-39.11-3.777c-.113.057.87-5.238 5.67-5.265 4.946-.028 5.742 5.265 5.742 5.265H83.834zm57.81 13.512c.04-2.09 0-16.173 0-16.173s.193-7.214-9.74-7.396c-8.986-.164-9.74 5.975-9.74 5.975S119.243-.17 111.94.048c-10.268.306-11.05 11.075-11.05 11.075S99.628.093 89.854.048c-9.375-.042-11.5 7.968-11.656 12.576a16.006 16.006 0 0 0 .17 2.976 6.31 6.31 0 0 0-1.52-1.975c-.35-.3-.816-.816-2.726-1.6-1.907-.782-3.573-.996-3.817-1.06-.244-.064-3.428-.66-4.04-.975-.614-.314-1.815-.595-1.882-2.293-.08-2.002 3.118-3.8 6.48-2.632 2.353.818 3.76 2.17 3.76 2.17l3.04-3.678s-1.965-1.81-4.488-2.72C71.877.37 69.418-.356 66.373.312c-2.708.594-5.077 2.286-6.24 4.87.028 0-.64 1.394-.668 3.017-.028 1.62.835 5.037 5.155 6.518.488.156 1.617.543 5.644 1.352.472.087 3.817.585 3.843 3.09-.01.54-.208 2.575-3.342 3.045-.85.1-4.083.4-8.347-3.33.015 0-3.148 3.416-3.148 3.416s4.906 5.003 10.98 4.838c7.81-.21 8.848-6.604 8.96-7.562l.017.052c.13.304 3.41 7.7 10.92 7.49 6.986-.19 9.5-4.576 10.84-6.75l-4.377-2.478s-2.423 4.77-6.744 4.29c-6.64-.74-6.156-7.354-6.156-7.354l17.165-.006s.556 12.32 11.563 12.32c6.214 0 9.17-5.098 9.17-5.098s2.058 5.077 7.97 5.077c4.483 0 6.55-3.377 6.55-3.377l.026 2.785h6.605s-1.158-.696-1.116-2.898z" fill="#EE1C25"/></g></svg>